# xmcd
#
# Track frame offsets:
#	150
#	16099
#	32652
#	49179
#	61757
#	77270
#	88966
#	105010
#	118394
#	134240
#	149078
#	164673
#	180574
#	196036
#	210333
#	222897
#	234950
#	255627
#
# Disc length: 3622 seconds
#
# Revision: 0
# Processed by: cddbd v1.4PL0 Copyright (c) Steve Scherf et al.
# Submitted via: dBpowerAMP V4.0
#
DISCID=f50e2412
DTITLE=Various Artist - Australia's Best Rodeo Songs
DYEAR=1900
DGENRE=Country
TTITLE0=1.8 Seconds/Cam Fletcher
TTITLE1=2.Chute Three/Col Finley
TTITLE2=3.Spare Parts Man/Wayne Law
TTITLE3=4.Red Blooded Man/Crakajak
TTITLE4=5.Boots Don't Fail Me Now/Clint Beattie
TTITLE5=6.Kickin' Up Dirt/Cam Fletcher
TTITLE6=7.Mining Dust Burning Sun/Michael O'Rourke
TTITLE7=8.It's Fun To Be A Cowboy/Josh Arnold
TTITLE8=9.Quick and The Dead/Steve Gibson
TTITLE9=10.Groovin' In The Desert/Rough Red
TTITLE10=11.Outlaw/Col Finley
TTITLE11=12.This Rodeo Has Just Begun/The Swing Team
TTITLE12=13.Buckle Hit's The Floor/Magnificent Seven
TTITLE13=14.Wildcat Boogie/Steve Gibson
TTITLE14=15.Cowboy Man/Diana Woods
TTITLE15=16.Nashville Express/Michael Fix
TTITLE16=17.City Trains/Crakajak
TTITLE17=18.Cool 2 Be A Cowboy/Magnificent Seven
EXTD=
EXTT0=
EXTT1=
EXTT2=
EXTT3=
EXTT4=
EXTT5=
EXTT6=
EXTT7=
EXTT8=
EXTT9=
EXTT10=
EXTT11=
EXTT12=
EXTT13=
EXTT14=
EXTT15=
EXTT16=
EXTT17=
PLAYORDER=
